<svg xmlns="http://www.w3.org/2000/svg" viewBox="0 0 380 75" width="100%" height="100%">
  <defs>
    <linearGradient id="premiumBlue" x1="0%" y1="0%" x2="100%" y2="100%">
      <stop offset="0%" stop-color="#0F2494" />
      <stop offset="100%" stop-color="#05104F" />
    </linearGradient>

    <linearGradient id="luxuryGold" x1="0%" y1="0%" x2="100%" y2="0%">
      <stop offset="0%" stop-color="#A98338" />
      <stop offset="50%" stop-color="#E9D39E" />
      <stop offset="100%" stop-color="#8E6A26" />
    </linearGradient>
  </defs>

  <g id="Horizontal-Gaza-Clinic-Logo">
    
    <g transform="translate(10, 4)">
      <path d="M 22 46 L 22 34 Q 22 22, 35 22 Q 48 22, 48 34 L 48 46 Z" fill="#0F2494" opacity="0.15" />
      <path d="M 25 46 L 25 35 Q 25 25, 35 25 Q 45 25, 45 35 L 45 46 Z" fill="#0F2494" />
      <rect x="34" y="16" width="2" height="9" fill="url(#luxuryGold)" />
      <path d="M 33 16 Q 35 12, 37 16 Z" fill="url(#luxuryGold)" />
      
      <rect x="14" y="24" width="5" height="22" fill="#0F2494" />
      <path d="M 12 24 L 16.5 13 L 21 24 Z" fill="url(#luxuryGold)" />
      
      <rect x="51" y="24" width="5" height="22" fill="#0F2494" />
      <path d="M 49 24 L 53.5 13 L 58 24 Z" fill="url(#luxuryGold)" />

      <path d="M 6 46 Q 6 32, -1 32 Q 6 32, 6 18 Q 6 32, 13 32 Q 6 32, 6 46 Z" fill="#2F4AD4" />
      <path d="M 64 46 Q 64 32, 57 32 Q 64 32, 64 18 Q 64 32, 71 32 Q 64 32, 64 46 Z" fill="#2F4AD4" />

      <rect x="-2" y="45" width="74" height="3.5" rx="1" fill="url(#luxuryGold)" />
      
      <g transform="translate(20, -4)">
        <rect x="14" y="12" width="2" height="20" rx="1" fill="url(#luxuryGold)" />
        <circle cx="15" cy="10" r="2.5" fill="url(#luxuryGold)" />
        <path d="M 9 18 Q 15 14, 21 18 Q 21 22, 15 25 Q 9 28, 11 32" fill="none" stroke="url(#luxuryGold)" stroke-width="1.8" stroke-linecap="round" />
        <path d="M 21 18 Q 15 14, 9 18 Q 9 22, 15 25 Q 21 28, 19 32" fill="none" stroke="url(#luxuryGold)" stroke-width="1.8" stroke-linecap="round" />
      </g>
    </g>

    <line x1="95" y1="12" x2="95" y2="62" stroke="#0F2494" stroke-width="1.5" opacity="0.25" />

    <text x="110" y="38" font-family="'Times New Roman', Times, serif" font-weight="900" fill="#0F2494" font-size="34" letter-spacing="0.5">Gaza</text>
    
    <text x="111" y="52" font-family="'Arial Black', 'Helvetica', sans-serif" font-weight="900" fill="url(#luxuryGold)" font-size="9" letter-spacing="2.8">MEDICAL CLINIC</text>
    
    <text x="111" y="64" font-family="'Georgia', 'Times New Roman', serif" font-style="italic" font-weight="bold" fill="#0F2494" font-size="8.5" letter-spacing="0.5" opacity="0.85">Ars Sanae per Gazam</text>

  </g>
</svg>
